<?xml version="1.0" encoding="utf-8"?>
<!-- Generator: Adobe Illustrator 24.0.2, SVG Export Plug-In . SVG Version: 6.00 Build 0)  -->
<svg version="1.1" id="Capa_1" xmlns="http://www.w3.org/2000/svg" xmlns:xlink="http://www.w3.org/1999/xlink" x="0px" y="0px"
	 viewBox="0 0 239.5 74.4" style="enable-background:new 0 0 239.5 74.4;" xml:space="preserve">
<style type="text/css">
	.bckgrouncolor{fill:#0F1010;}
</style>
<g>
	<path class="bckgrouncolor" d="M159.5,28.2c0,8.5,0.1,17.1,0,25.6c-0.1,6.3-2.8,11.5-7.6,15.6c-4.7,4-10.2,5.6-16.3,4.9
		c-5-0.6-9.2-2.9-12.7-6.6c-4.1-4.3-5.9-9.5-5.9-15.5c0-9.9,0-19.7,0-29.6c0-3.6-0.8-6.7-3.5-9.2c-5.8-5.3-15.4-2.5-17.3,5.1
		c-0.3,1.2-0.5,2.5-0.5,3.7c0,10.5,0.1,21,0,31.4c-0.1,6.3-2.8,11.5-7.5,15.6c-4.7,4.1-10.2,5.7-16.4,5c-5-0.6-9.2-3-12.7-6.6
		c-4.1-4.3-5.9-9.5-5.9-15.4c0-12.6,0-25.2,0-37.8c0-4.4,0-8.8-0.1-13.3c0-0.9,0.3-1.2,1.2-1.2c2.7,0,5.4,0.1,8.2,0
		c1.1,0,1.3,0.4,1.3,1.4c0,6.5,0,13,0,19.5c0,10.6,0,21.3,0,31.9c0,7.9,7.2,13,14.5,10.3c3.8-1.4,6.2-4.3,6.6-8.4
		c0.4-3.8,0.2-7.5,0.2-11.3c0-7,0.1-14,0-21.1c-0.1-6.2,2-11.7,6.5-16C97,1,103.7-1.2,111.1,0.7c9.3,2.3,14.6,8.6,16.3,17.9
		c0.2,1.3,0.1,2.8,0.1,4.1c0,9.9,0,19.9,0,29.8c0,3.6,1.3,6.7,4.2,9c4.8,3.8,12.5,2.4,15.6-2.9c1.2-2,1.5-4.2,1.5-6.4
		c0-12.9,0-25.7,0-38.6c0-4.1,0-8.3,0-12.4c0-0.9,0.3-1.2,1.2-1.2c2.8,0,5.5,0.1,8.3,0c1,0,1.1,0.4,1.1,1.2c0,6.5,0,13.1,0,19.6
		C159.5,23.3,159.5,25.7,159.5,28.2C159.5,28.2,159.5,28.2,159.5,28.2z"/>
	<path class="bckgrouncolor" d="M215.5,42.4c0,10.1,0,20.3,0,30.4c0,1.2-0.4,1.5-1.5,1.5c-2.6-0.1-5.1-0.1-7.7,0c-1.1,0-1.5-0.3-1.4-1.4
		c0.1-5.4,0-10.8,0-16.2c0-14.8,0-29.6,0-44.4c0-1.7,0-1.7-1.7-1.7c-6.9,0-13.8,0-20.7,0c-1.2,0-1.5-0.4-1.5-1.5
		c0.1-2.6,0.1-5.2,0-7.8c0-0.9,0.2-1.3,1.2-1.3c18.7,0,37.4,0,56,0c0.9,0,1.2,0.3,1.2,1.2c0,2.7-0.1,5.4,0,8.2c0,1-0.3,1.2-1.2,1.2
		c-7.1,0-14.2,0-21.3,0c-1.1,0-1.5,0.3-1.5,1.4C215.5,22.1,215.5,32.3,215.5,42.4z"/>
	<path class="bckgrouncolor" d="M21.3,28.2c0,8.4,0,16.9,0,25.3c0,6.4-2.7,11.7-7.6,15.8c-3.5,3-7.6,4.8-12.2,5.1C0.3,74.4,0,74.1,0,72.9
		c0.1-2.6,0.1-5.2,0-7.8c0-0.9,0.3-1.4,1.3-1.5c5.5-0.7,9.1-4.5,9.3-10.1c0.2-6.8,0.1-13.6,0.1-20.5c0-10.6,0-21.2-0.1-31.8
		C10.6,0.3,11,0,12,0c2.6,0,5.3,0.1,7.9,0c1.1,0,1.4,0.3,1.4,1.4C21.2,10.3,21.3,19.2,21.3,28.2z"/>
</g>
</svg>
